<svg id="Component_5_1" data-name="Component 5 – 1" xmlns="http://www.w3.org/2000/svg" xmlns:xlink="http://www.w3.org/1999/xlink" width="49.295" height="71.647" viewBox="0 0 49.295 71.647">
  <defs>
    <clipPath id="clip-path">
      <rect id="Rectangle_1850" data-name="Rectangle 1850" width="49.295" height="71.647" fill="none"/>
    </clipPath>
  </defs>
  <g id="Group_1950" data-name="Group 1950" transform="translate(-126 -170)">
    <g id="Group_1945" data-name="Group 1945" transform="translate(126 170)">
      <g id="Group_1940" data-name="Group 1940" transform="translate(0 0)" clip-path="url(#clip-path)">
        <path id="Path_2256" data-name="Path 2256" d="M48.719,19.625A24.605,24.605,0,0,0,.058,23.219,24.8,24.8,0,0,0,3.2,37.113q8.584,15.672,17.116,31.371a5.735,5.735,0,0,0,3.493,3.162h1.679A5.152,5.152,0,0,0,28.635,69.1q8.726-16.034,17.493-32.048a24.721,24.721,0,0,0,2.589-17.423" transform="translate(0 0)" fill="#fff"/>
      </g>
    </g>
    <g id="b" transform="translate(125.998 170.004)">
      <g id="c">
        <g id="Group_1931" data-name="Group 1931">
          <path id="Path_2203" data-name="Path 2203" d="M18.86,65.79c4.4-5.21,14.03-8.67,16.51-9.13.57-1.04,1.13-2.08,1.7-3.12-3.81.05-13.87,1.5-21.21,6.73q1.5,2.76,3.01,5.52Z" fill="#3cc"/>
          <path id="Path_2204" data-name="Path 2204" d="M10.13,49.76c1.11,2.04,2.22,4.07,3.33,6.11,8.79-5.29,19.79-5.29,24.96-4.81.34-.62.68-1.24,1.02-1.87-5.18-2.85-20.06-3.39-29.31.57Z" fill="#3cc"/>
          <path id="Path_2205" data-name="Path 2205" d="M27.57,15.56a14.918,14.918,0,0,0-2.04-4.44,7.848,7.848,0,0,0-2.16-.21,3.637,3.637,0,0,1,.89.86,10.842,10.842,0,0,1,1.45,2.73,19.987,19.987,0,0,1,1.23,5.28,21.431,21.431,0,0,1,.1,3.49c-.03.44-.1.88-.15,1.32-.03.26-.05.52-.1.77a9.6,9.6,0,0,1-1.09,3.29,3.112,3.112,0,0,1-.23.28l1.75-.18a9.814,9.814,0,0,0,.77-2.23,16.266,16.266,0,0,0,.33-1.69,23.694,23.694,0,0,0-.06-5.95,22.274,22.274,0,0,0-.7-3.32Z" fill="#3cc"/>
          <path id="Path_2206" data-name="Path 2206" d="M23.03,28.43a8.166,8.166,0,0,1-1.04-1.75c-.29-.67-.53-1.35-.77-2.03-.14-.4-.24-.8-.36-1.21a19.979,19.979,0,0,1-.66-5.22,17.906,17.906,0,0,1,.25-3.19,10.069,10.069,0,0,1,1.06-3.29,2.767,2.767,0,0,1,.47-.65,7.187,7.187,0,0,0-2.02.63,12.24,12.24,0,0,0-.85,2.76,21.3,21.3,0,0,0-.1,6.99c.08.61.21,1.21.34,1.81.14.63.3,1.26.49,1.87a12.637,12.637,0,0,0,.54,1.45,13.524,13.524,0,0,0,1.37,2.47c.06.08.12.15.18.23l1.74-.18a3.548,3.548,0,0,1-.65-.69Z" fill="#3cc"/>
          <path id="Path_2207" data-name="Path 2207" d="M48.68,19.61h0A24.584,24.584,0,0,0,.06,23.2,24.8,24.8,0,0,0,3.2,37.08c1.64,2.99,4.6,8.42,4.6,8.42,12.22-4.32,26.88-1.94,32.7,1.63,1.92-3.51,3.68-6.61,5.6-10.12A24.736,24.736,0,0,0,48.69,19.6ZM32.73,21.59a14.4,14.4,0,0,1-1.28,3.18,24.8,24.8,0,0,1-2.99,4.34c0,.01-.02.01-.03.02h0q-.18,1.365-.36,2.7c-.05.38-.05.31.27.29a1.945,1.945,0,0,1,.59,0,.558.558,0,0,1,.4.6.615.615,0,0,1-.51.53,4.4,4.4,0,0,1-.51.05c-.13,0-.17.06-.15.19.11,1,.21,2,.32,3.01a.756.756,0,0,1,0,.26.7.7,0,0,1-.67.63l-2.28.24-2.25.24a.594.594,0,0,0-.11.01.743.743,0,0,1-.76-.71l-.3-2.85c-.04-.35-.04-.34-.38-.32a1.631,1.631,0,0,1-.54,0,.554.554,0,0,1-.45-.61.586.586,0,0,1,.51-.54c.17-.02.34-.04.51-.05.11,0,.15-.04.11-.16-.18-.49-.35-.98-.53-1.47-.15-.42-.3-.85-.46-1.27h0s-.04-.03-.05-.04a23.482,23.482,0,0,1-2.88-2.58c-.41-.43-.77-.9-1.16-1.35a11.973,11.973,0,0,1-1.53-2.26,7.81,7.81,0,0,1-1.01-3.4,9.382,9.382,0,0,1,.65-3.82,9.06,9.06,0,0,1,4.67-5l.36-.18c.03-.01.05-.03.08-.04h.02a7.552,7.552,0,0,1,2.13-.62,8.072,8.072,0,0,1,3.56.11,9.109,9.109,0,0,1,4.26,2.16,9.29,9.29,0,0,1,2.43,3.51A8.607,8.607,0,0,1,33,18.67a8.055,8.055,0,0,1-.26,2.89Z" fill="#3cc"/>
          <path id="Path_2208" data-name="Path 2208" d="M24.22,31.01c-.04-.35-.07-.7-.11-1.05l-1.89.2c.29.78.57,1.57.85,2.35a.174.174,0,0,0,.21.14l.9-.09c.19-.02.2-.02.18-.22-.05-.44-.09-.88-.14-1.32Z" fill="#3cc"/>
          <path id="Path_2209" data-name="Path 2209" d="M25.47,31.48c.03.26.05.52.08.78,0,.08.03.15.14.14.34-.04.67-.07,1.01-.11a.216.216,0,0,0,.12-.11c.04-.18.05-.36.08-.54.07-.51.14-1.03.21-1.54.02-.15.04-.3.06-.46l-1.86.2c.06.55.12,1.1.17,1.65Z" fill="#3cc"/>
          <path id="Path_2210" data-name="Path 2210" d="M27.22,36.07h0v0Z" fill="#3cc"/>
          <path id="Path_2211" data-name="Path 2211" d="M20.99,69.6a4.617,4.617,0,0,0,2.8,1.99,6.746,6.746,0,0,0,1.68,0,5.1,5.1,0,0,0,3.14-2.55,100.675,100.675,0,0,0,5.06-9.06c-2.08.37-9.42,4.6-12.69,9.62Z" fill="#3cc"/>
        </g>
      </g>
    </g>
  </g>
</svg>
