<svg xmlns="http://www.w3.org/2000/svg" viewBox="-28 0 180 180"><defs><style>.cls-1{fill:#34cacb;}.cls-2{fill:none;stroke:#5e6060;stroke-opacity:0.39;stroke-width:0.76px;}</style></defs><g id="Layer_2" data-name="Layer 2"><g id="Layer_41" data-name="Layer 41"><g id="Layer_40" data-name="Layer 40"><path class="cls-1" d="M79.76,50.45a11.17,11.17,0,0,0-4,.73L72.42,45.6l1-2.49h.44a1.47,1.47,0,0,0,0-2.94H69.48a1.47,1.47,0,0,0,0,2.94h.74l-.59,1.46H56.26V38.7H48.92v2.94h4.41v4.11L50.68,51a7.9,7.9,0,0,0-3.23-.59A10.28,10.28,0,1,0,57.73,60.73a10,10,0,0,0-4.4-8.37L55.09,49l9.25,13.37h5.29a10.27,10.27,0,1,0,10.13-11.9Zm-25,10.28a7.35,7.35,0,1,1-7.35-7.34,8.42,8.42,0,0,1,1.91.29l-3.23,6.46h0c-.15.15-.15.3-.15.59a1.45,1.45,0,0,0,2.79.59h0L52,54.86A8,8,0,0,1,54.8,60.73ZM73.3,52.8a10.63,10.63,0,0,0-3.67,6.46H67.28L71.1,49.13Zm1.47,2.5,2.35,4H72.57A7.5,7.5,0,0,1,74.77,55.3ZM64.64,57.65l-7-10.14h11ZM79.76,68.07a7.37,7.37,0,0,1-7.19-5.87h7.19a1.39,1.39,0,0,0,1.47-1.47,1.14,1.14,0,0,0-.29-.73h0l-3.67-6.17a6.68,6.68,0,0,1,2.49-.44,7.34,7.34,0,1,1,0,14.68Z"/><line class="cls-2" x1="596.02" y1="2356.42" x2="596.02" y2="2409.83"/><path class="cls-1" d="M62.24,0h0C27.86,0,0,26.47,0,59.13,0,71.69,6.73,82.35,11.81,93.82c0,.06.13.27.31.62,7.25-4,16.24-6.67,25.94-8.17A37.37,37.37,0,0,1,23.28,56.74c0-21,18-38.1,40.12-38.1s40.12,17.07,40.12,38.1A37.54,37.54,0,0,1,86.27,88c9.32,2.16,17.76,5.4,24.32,9.66,1.25-2.38,2-3.83,2.07-4,5.08-11.47,11.81-22.13,11.81-34.68C124.47,26.47,96.61,0,62.24,0Z"/><path class="cls-1" d="M42.57,152.22c15.88-15.91,37.87-28.9,56.35-32.32,1.47-2.8,2.9-5.52,4.25-8.07-24.43,2.64-49.25,9-69.35,23.83Z"/><path class="cls-1" d="M49,164.41l1,1.91a14,14,0,0,0,24.43,0s10-18.92,19.74-37.45C77,137.93,60.9,149.11,49,164.41Z"/><path class="cls-1" d="M18,105.65c2.56,4.87,5.71,10.84,9,17.12,22.75-14.13,56.61-21.46,78.94-16.26l2.58-4.91C78.38,94.34,46.81,89.74,18,105.65Z"/></g></g></g></svg>