<svg xmlns="http://www.w3.org/2000/svg" viewBox="-28 0 180 180"><defs><style>.cls-1{fill:#fd6abd;}.cls-2{fill:none;stroke:#5e6060;stroke-opacity:0.39;stroke-width:0.76px;}</style></defs><g id="Layer_2" data-name="Layer 2"><g id="Layer_41" data-name="Layer 41"><g id="Layer_40" data-name="Layer 40"><path class="cls-1" d="M71.46,72.24l8.45-13.95a6.14,6.14,0,0,1,.8-1.06v-13a1.34,1.34,0,0,0-.53-1.1A1.56,1.56,0,0,0,79,42.79l-.35.05c-9.07,1.1-12.57,1.64-21.59.54,0,0-2,6.46-3.52,7.06-1.33,1.34-4.16.19-4.16.63v7.39a21.6,21.6,0,0,0,1.54,8A15.22,15.22,0,0,0,65.08,76a14.25,14.25,0,0,0,2.34-.17c.17-.36.35-.66.52-1a6.63,6.63,0,0,1,3.52-2.6ZM71,51.11a4,4,0,0,1,4.09,3.74.79.79,0,0,1-.22.71.94.94,0,0,1-.66.31H67.81a.8.8,0,0,1-.66-.31.85.85,0,0,1-.22-.71A4,4,0,0,1,71,51.11Zm-15.67,4.4a.77.77,0,0,1-.22-.7,4,4,0,0,1,4.09-3.74,4.08,4.08,0,0,1,4.1,3.74.83.83,0,0,1-.22.7,1,1,0,0,1-.71.31H56A.86.86,0,0,1,55.31,55.51Zm9.77,12.11A7.17,7.17,0,0,1,58.79,64a1.48,1.48,0,0,1,2.55-1.49,4.37,4.37,0,0,0,3.74,2.15,4.11,4.11,0,0,0,3.66-2.11,1.46,1.46,0,0,1,2-.57,1.49,1.49,0,0,1,.57,2,7,7,0,0,1-6.25,3.66Z"/><path class="cls-1" d="M87.09,58.51a3.42,3.42,0,0,0-4.93,1.1l-7.57,12.5a5.7,5.7,0,0,1,2.46,1A6.92,6.92,0,0,1,78.9,75l9-11.53a3.49,3.49,0,0,0-.79-5Z"/><path class="cls-1" d="M75.6,75.23a4,4,0,0,0-5.55,1c-1.32,1.93,0,4.57-2.33,7.13a.69.69,0,0,0,.49,1.18c4.35.09,7.08-1.93,8.36-3.83a3.9,3.9,0,0,0-1-5.5Z"/><path class="cls-1" d="M43.89,45.6l3.76-8.3,6.55,1.37-2.14,4.74-.15-.07A3.42,3.42,0,0,0,47.3,44.7a3.68,3.68,0,0,0,6.64,3L59.4,35.64a1.37,1.37,0,0,0,0-1.2,1.44,1.44,0,0,0-1-.74L47.91,31.47a1.71,1.71,0,0,0-1.91,1l-4,8.85-.15-.07a3.41,3.41,0,0,0-4.62,1.35,3.44,3.44,0,0,0,2,4.37,3.47,3.47,0,0,0,4.64-1.34Z"/><line class="cls-2" x1="596.02" y1="2762.82" x2="596.02" y2="2816.22"/><path class="cls-1" d="M62.24,0h0C27.86,0,0,26.47,0,59.13,0,71.69,6.73,82.35,11.81,93.82c0,.06.13.27.31.62,7.25-4,16.24-6.67,25.94-8.17A37.37,37.37,0,0,1,23.28,56.74c0-21,18-38.1,40.12-38.1s40.12,17.07,40.12,38.1A37.54,37.54,0,0,1,86.27,88c9.32,2.16,17.76,5.4,24.32,9.66,1.25-2.38,2-3.83,2.07-4,5.08-11.47,11.81-22.13,11.81-34.68C124.47,26.47,96.61,0,62.24,0Z"/><path class="cls-1" d="M42.57,152.22c15.88-15.91,37.87-28.9,56.35-32.32,1.47-2.8,2.9-5.52,4.25-8.07-24.43,2.64-49.25,9-69.35,23.83Z"/><path class="cls-1" d="M49,164.41l1,1.91a14,14,0,0,0,24.43,0s10-18.92,19.74-37.45C77,137.93,60.9,149.11,49,164.41Z"/><path class="cls-1" d="M18,105.65c2.56,4.87,5.71,10.84,9,17.12,22.75-14.13,56.61-21.46,78.94-16.26l2.58-4.91C78.38,94.34,46.81,89.74,18,105.65Z"/></g></g></g></svg>