<svg id="Component_4_1" data-name="Component 4 – 1" xmlns="http://www.w3.org/2000/svg" xmlns:xlink="http://www.w3.org/1999/xlink" width="49.295" height="71.647" viewBox="0 0 49.295 71.647">
  <defs>
    <clipPath id="clip-path">
      <rect id="Rectangle_1850" data-name="Rectangle 1850" width="49.295" height="71.647" fill="none"/>
    </clipPath>
  </defs>
  <g id="Group_1951" data-name="Group 1951" transform="translate(-185 -170)">
    <g id="Group_1944" data-name="Group 1944" transform="translate(185 170)">
      <g id="Group_1940" data-name="Group 1940" transform="translate(0 0)" clip-path="url(#clip-path)">
        <path id="Path_2256" data-name="Path 2256" d="M48.719,19.625A24.605,24.605,0,0,0,.058,23.219,24.8,24.8,0,0,0,3.2,37.113q8.584,15.672,17.116,31.371a5.735,5.735,0,0,0,3.493,3.162h1.679A5.152,5.152,0,0,0,28.635,69.1q8.726-16.034,17.493-32.048a24.721,24.721,0,0,0,2.589-17.423" transform="translate(0 0)" fill="#fff"/>
      </g>
    </g>
    <g id="b" transform="translate(184.998 170.004)">
      <g id="c">
        <g id="Group_1932" data-name="Group 1932">
          <path id="Path_2212" data-name="Path 2212" d="M18.86,65.79c4.4-5.21,14.03-8.67,16.51-9.13.57-1.04,1.13-2.08,1.7-3.12-3.81.05-13.87,1.5-21.21,6.73q1.5,2.76,3.01,5.52Z" fill="#ff69bf"/>
          <path id="Path_2213" data-name="Path 2213" d="M10.13,49.76c1.11,2.04,2.22,4.07,3.33,6.11,8.79-5.29,19.79-5.29,24.96-4.81.34-.62.68-1.24,1.02-1.87-5.18-2.85-20.06-3.39-29.31.57Z" fill="#ff69bf"/>
          <path id="Path_2214" data-name="Path 2214" d="M48.68,19.61h0A24.584,24.584,0,0,0,.06,23.2,24.8,24.8,0,0,0,3.2,37.08c1.64,2.99,4.6,8.42,4.6,8.42,12.22-4.32,26.88-1.94,32.7,1.63,1.92-3.51,3.68-6.61,5.6-10.12A24.736,24.736,0,0,0,48.69,19.6Zm-20.94-8a6.083,6.083,0,0,1,.89-.35,4.384,4.384,0,0,1,1.53-.15,4.786,4.786,0,0,1,1.29.27,4.965,4.965,0,0,1,1.6.94A5.357,5.357,0,0,1,34.4,14.1a5.585,5.585,0,0,1,.51,2.93,5.447,5.447,0,0,1-.57,1.93c-.02.03-.03.05-.05.08-.24-.14-.47-.27-.7-.42-.29-.19-.58-.38-.86-.58a5.691,5.691,0,0,1-.98-.71,21.9,21.9,0,0,1-2.09-1.88,18.748,18.748,0,0,1-2.01-2.44l-.62-.93a8.511,8.511,0,0,1,.73-.45Zm-2.3,2.65a4.911,4.911,0,0,1,.63-1.2q.225.36.45.69a20.031,20.031,0,0,0,1.9,2.4,21.866,21.866,0,0,0,1.9,1.83l1.51,1.17c.49.36,1,.69,1.52,1a.218.218,0,0,1,.05.04c-.15.12-.28.25-.43.37a4.4,4.4,0,0,1-1.22.67,4.484,4.484,0,0,1-1.31.26,4.626,4.626,0,0,1-1.39-.13,5.178,5.178,0,0,1-2.85-1.93,5.542,5.542,0,0,1-.99-2.23,5.357,5.357,0,0,1,.22-2.94Zm8.94,20.96a.751.751,0,0,1-.65-.4,13.7,13.7,0,0,0-1.59-2.33,10.367,10.367,0,0,0-1.33-1.32,4.409,4.409,0,0,0-.45-.35c-.16-.1-.31-.2-.46-.29a4.954,4.954,0,0,0-3.02-.74,3.49,3.49,0,0,0-2.18,1.07,12.8,12.8,0,0,0-1.47,1.73c-.55.74-1.09,1.49-1.66,2.22a5.724,5.724,0,0,1-1.63,1.47,3.185,3.185,0,0,1-1.98.41c-.07,0-.13-.04-.23-.05s-.19-.05-.2-.04l-.39-.15a1.539,1.539,0,0,0-.19-.08l-.26-.13a5.926,5.926,0,0,1-1.9-1.66,3.088,3.088,0,0,1-.42-3.07,4.865,4.865,0,0,1,.97-1.52.12.12,0,0,0,.03-.14,1.635,1.635,0,0,1,.26-1.62c.57-.69,1.16-1.38,1.73-2.06l2.62-3.13c.52-.62,1.04-1.23,1.56-1.85.64-.77,1.29-1.54,1.93-2.31l.78-.93c.02-.02.03-.05.05-.07.07.25.13.48.2.71a4.29,4.29,0,0,0,.56,1.11,5.488,5.488,0,0,0,1.4,1.52,8.3,8.3,0,0,0,1.82.95c.11.04.23.08.36.13-.12.1-.23.2-.34.29l-1.96,1.64-3.28,2.74c-1.04.87-2.08,1.74-3.12,2.62-.68.57-1.35,1.14-2.03,1.69a.711.711,0,0,1-.4.11c-.24,0-.47-.02-.71-.03,0-.01-.74.03-.88.26-.03.1,0,0-.03.11-.02.05-.04.09-.06.14a1.617,1.617,0,0,0,.16,1.83,4.244,4.244,0,0,0,1.74,1.37,1.356,1.356,0,0,0,.44.11c.14.01.12.02.24.03l.29-.05a.522.522,0,0,0,.21-.07,1.505,1.505,0,0,0,.22-.11,2.922,2.922,0,0,0,.27-.17,1.558,1.558,0,0,0,.2-.16,3.581,3.581,0,0,0,.3-.28c.32-.38.66-.74.96-1.14.48-.63.94-1.28,1.41-1.92a10.363,10.363,0,0,1,1.84-1.96,4.847,4.847,0,0,1,1.45-.82,6.494,6.494,0,0,1,.76-.19c.04-.01.48-.06.57-.06a7.711,7.711,0,0,1,1.27.05,6.874,6.874,0,0,1,2.78,1.08c.16.1.32.22.47.33.03.02.16.14.17.13a2.56,2.56,0,0,1,.26.2,12.494,12.494,0,0,1,2.32,2.6,16.458,16.458,0,0,1,.88,1.45.779.779,0,0,1,.09.37.743.743,0,0,1-.77.73Z" fill="#ff69bf"/>
          <path id="Path_2215" data-name="Path 2215" d="M20.99,69.6a4.617,4.617,0,0,0,2.8,1.99,6.746,6.746,0,0,0,1.68,0,5.1,5.1,0,0,0,3.14-2.55,100.675,100.675,0,0,0,5.06-9.06c-2.08.37-9.42,4.6-12.69,9.62Z" fill="#ff69bf"/>
        </g>
      </g>
    </g>
  </g>
</svg>