<svg id="Component_2_1" data-name="Component 2 – 1" xmlns="http://www.w3.org/2000/svg" xmlns:xlink="http://www.w3.org/1999/xlink" width="49.295" height="71.647" viewBox="0 0 49.295 71.647">
  <defs>
    <clipPath id="clip-path">
      <rect id="Rectangle_1850" data-name="Rectangle 1850" width="49.295" height="71.647" fill="none"/>
    </clipPath>
  </defs>
  <g id="Group_1953" data-name="Group 1953" transform="translate(-304 -170)">
    <g id="Group_1942" data-name="Group 1942" transform="translate(304 170)">
      <g id="Group_1940" data-name="Group 1940" transform="translate(0 0)" clip-path="url(#clip-path)">
        <path id="Path_2256" data-name="Path 2256" d="M48.719,19.625A24.605,24.605,0,0,0,.058,23.219,24.8,24.8,0,0,0,3.2,37.113q8.584,15.672,17.116,31.371a5.735,5.735,0,0,0,3.493,3.162h1.679A5.152,5.152,0,0,0,28.635,69.1q8.726-16.034,17.493-32.048a24.721,24.721,0,0,0,2.589-17.423" transform="translate(0 0)" fill="#fff"/>
      </g>
    </g>
    <g id="b" transform="translate(303.998 170.004)">
      <g id="c">
        <g id="Group_1934" data-name="Group 1934">
          <path id="Path_2220" data-name="Path 2220" d="M18.86,65.79c4.4-5.21,14.03-8.67,16.51-9.13.57-1.04,1.13-2.08,1.7-3.12-3.81.05-13.87,1.5-21.21,6.73q1.5,2.76,3.01,5.52Z" fill="red"/>
          <path id="Path_2221" data-name="Path 2221" d="M10.13,49.76c1.11,2.04,2.22,4.07,3.33,6.11,8.79-5.29,19.79-5.29,24.96-4.81.34-.62.68-1.24,1.02-1.87-5.18-2.85-20.06-3.39-29.31.57Z" fill="red"/>
          <path id="Path_2222" data-name="Path 2222" d="M48.68,19.61h0A24.584,24.584,0,0,0,.06,23.2,24.8,24.8,0,0,0,3.2,37.08c1.64,2.99,4.6,8.42,4.6,8.42,12.22-4.32,26.88-1.94,32.7,1.63,1.92-3.51,3.68-6.61,5.6-10.12A24.736,24.736,0,0,0,48.69,19.6ZM25.7,20.77a4.256,4.256,0,0,1-4.02,4.25v9.67H19V25.02a4.27,4.27,0,0,1-4.02-4.25V13.28h2.14v7.49h2.14V13.28H21.4v7.49h2.14V13.28h2.14v7.49Zm8.57,13.92H31.59V26.12H28.91V17.56c0-1.88,2.4-4.28,5.35-4.28V34.69Z" fill="red"/>
          <path id="Path_2223" data-name="Path 2223" d="M20.99,69.6a4.617,4.617,0,0,0,2.8,1.99,6.746,6.746,0,0,0,1.68,0,5.1,5.1,0,0,0,3.14-2.55,100.675,100.675,0,0,0,5.06-9.06c-2.08.37-9.42,4.6-12.69,9.62Z" fill="red"/>
        </g>
      </g>
    </g>
  </g>
</svg>
