<svg xmlns="http://www.w3.org/2000/svg" viewBox="-28 0 180 180"><defs><style>.cls-1{fill:#fd2f2f;}.cls-2</style></defs><g id="Layer_2" data-name="Layer 2"><g id="Layer_41" data-name="Layer 41"><g id="Layer_40" data-name="Layer 40"><path class="cls-1" d="M62.27,50.1V36.85H60.55V47.3a1,1,0,1,1-1.93,0V36.85H56.71V47.3a1,1,0,1,1-1.93,0V36.85H52.87V47.3a1,1,0,1,1-1.93,0V36.85H49.22V50.1a6.53,6.53,0,0,0,4.65,6.26V81a1.88,1.88,0,0,0,3.75,0V56.36a6.53,6.53,0,0,0,4.65-6.26Z"/><path class="cls-1" d="M72.74,36.94a4.8,4.8,0,0,0-3.51,1.56c-5,5.1-4.86,22.39-4.83,24.34l0,1.42H71.3V81.41a1.44,1.44,0,1,0,2.88,0v-43a1.44,1.44,0,0,0-1.44-1.43Z"/><line class="cls-2" x1="238.58" y1="2357.05" x2="238.58" y2="2410.46"/><path class="cls-1" d="M62.24,0h0C27.86,0,0,26.47,0,59.13,0,71.69,6.73,82.35,11.81,93.82c0,.06.13.27.31.62,7.25-4,16.24-6.67,25.94-8.17A37.37,37.37,0,0,1,23.28,56.74c0-21,18-38.1,40.12-38.1s40.12,17.07,40.12,38.1A37.54,37.54,0,0,1,86.27,88c9.32,2.16,17.76,5.4,24.32,9.66,1.25-2.38,2-3.83,2.07-4,5.08-11.47,11.81-22.13,11.81-34.68C124.47,26.47,96.61,0,62.24,0Z"/><path class="cls-1" d="M42.57,152.22c15.88-15.91,37.87-28.9,56.35-32.32,1.47-2.8,2.9-5.52,4.25-8.07-24.43,2.64-49.25,9-69.35,23.83Z"/><path class="cls-1" d="M49,164.41l1,1.91a14,14,0,0,0,24.43,0s10-18.92,19.74-37.45C77,137.93,60.9,149.11,49,164.41Z"/><path class="cls-1" d="M18,105.65c2.56,4.87,5.71,10.84,9,17.12,22.75-14.13,56.61-21.46,78.94-16.26l2.58-4.91C78.38,94.34,46.81,89.74,18,105.65Z"/></g></g></g></svg>