<svg id="Component_1_1" data-name="Component 1 – 1" xmlns="http://www.w3.org/2000/svg" xmlns:xlink="http://www.w3.org/1999/xlink" width="49.327" height="71.647" viewBox="0 0 49.327 71.647">
  <defs>
    <clipPath id="clip-path">
      <rect id="Rectangle_1850" data-name="Rectangle 1850" width="49.295" height="71.647" fill="none"/>
    </clipPath>
  </defs>
  <g id="Group_1943" data-name="Group 1943" transform="translate(0.032 0)">
    <g id="Group_1940" data-name="Group 1940" transform="translate(0 0)" clip-path="url(#clip-path)">
      <path id="Path_2256" data-name="Path 2256" d="M48.719,19.625A24.605,24.605,0,0,0,.058,23.219,24.8,24.8,0,0,0,3.2,37.113q8.584,15.672,17.116,31.371a5.735,5.735,0,0,0,3.493,3.162h1.679A5.152,5.152,0,0,0,28.635,69.1q8.726-16.034,17.493-32.048a24.721,24.721,0,0,0,2.589-17.423" transform="translate(0 0)" fill="#fff"/>
    </g>
  </g>
  <g id="b" transform="translate(-0.002 0.004)">
    <g id="c">
      <g id="Group_1935" data-name="Group 1935">
        <path id="Path_2224" data-name="Path 2224" d="M18.86,65.79c4.4-5.21,14.03-8.67,16.51-9.13.57-1.04,1.13-2.08,1.7-3.12-3.81.05-13.87,1.5-21.21,6.73q1.5,2.76,3.01,5.52Z" fill="#fc0"/>
        <path id="Path_2225" data-name="Path 2225" d="M10.13,49.76c1.11,2.04,2.22,4.07,3.33,6.11,8.79-5.29,19.79-5.29,24.96-4.81.34-.62.68-1.24,1.02-1.87-5.18-2.85-20.06-3.39-29.31.57Z" fill="#fc0"/>
        <path id="Path_2226" data-name="Path 2226" d="M21.76,22.47h.03a1.613,1.613,0,0,0,1.58-1.63V14.97H20.92l-.68,5.65h0a1.773,1.773,0,0,0,.41,1.33,1.49,1.49,0,0,0,1.11.51Z" fill="#fc0"/>
        <path id="Path_2227" data-name="Path 2227" d="M27.4,22.47a1.506,1.506,0,0,0,1.19-.51A1.635,1.635,0,0,0,29,20.62l-.67-5.65H25.88v5.86a1.592,1.592,0,0,0,1.53,1.64Z" fill="#fc0"/>
        <path id="Path_2228" data-name="Path 2228" d="M33.27,14.96H30.86l.72,6.09a1.573,1.573,0,0,0,1.51,1.43,1.478,1.478,0,0,0,1.18-.58,1.7,1.7,0,0,0,.31-1.46l-1.31-5.47Z" fill="#fc0"/>
        <path id="Path_2229" data-name="Path 2229" d="M48.68,19.61h0A24.584,24.584,0,0,0,.06,23.2,24.8,24.8,0,0,0,3.2,37.08c1.64,2.99,4.6,8.42,4.6,8.42,12.22-4.32,26.88-1.94,32.7,1.63,1.92-3.51,3.68-6.61,5.6-10.12A24.736,24.736,0,0,0,48.69,19.6ZM36.23,23.45c-.11.12-.23.24-.35.35v8.68a2.5,2.5,0,0,1-2.5,2.5H15.87a2.5,2.5,0,0,1-2.5-2.5V23.8c-.12-.11-.24-.24-.35-.36a4.191,4.191,0,0,1-.77-3.6l1.31-5.47a2.459,2.459,0,0,1,2.38-1.9H33.31a2.459,2.459,0,0,1,2.39,1.9l1.31,5.47a4.184,4.184,0,0,1-.78,3.61Z" fill="#fc0"/>
        <path id="Path_2230" data-name="Path 2230" d="M17.67,21.05l.72-6.08H15.93l-1.26,5.45h0A1.675,1.675,0,0,0,15,21.88a1.435,1.435,0,0,0,1.16.59,1.573,1.573,0,0,0,1.51-1.42Z" fill="#fc0"/>
        <path id="Path_2231" data-name="Path 2231" d="M30.3,23.79a4,4,0,0,1-2.8,1.19,4.108,4.108,0,0,1-2.86-1.16,3.944,3.944,0,0,1-2.79,1.16,4.061,4.061,0,0,1-2.89-1.19,3.879,3.879,0,0,1-2.8,1.19,1.445,1.445,0,0,1-.29-.04v7.54H33.39V24.94a2.885,2.885,0,0,1-.29.04,3.879,3.879,0,0,1-2.8-1.19Z" fill="#fc0"/>
        <path id="Path_2232" data-name="Path 2232" d="M20.99,69.6a4.617,4.617,0,0,0,2.8,1.99,6.746,6.746,0,0,0,1.68,0,5.1,5.1,0,0,0,3.14-2.55,100.675,100.675,0,0,0,5.06-9.06c-2.08.37-9.42,4.6-12.69,9.62Z" fill="#fc0"/>
      </g>
    </g>
  </g>
</svg>
