<svg xmlns="http://www.w3.org/2000/svg" viewBox="-28 0 180 180"><defs><style>.cls-1{fill:#fdca33;}.cls-2{fill:none;stroke:#5e6060;stroke-opacity:0.39;stroke-width:0.76px;}</style></defs><g id="Layer_2" data-name="Layer 2"><g id="Layer_41" data-name="Layer 41"><g id="Layer_40" data-name="Layer 40"><path class="cls-1" d="M63.21,41.4,58.85,56.67H53.07V44.92h-2.5V56.58l-8.27,1L43,65.25h-4.6v8.08h3.18v.54a7.3,7.3,0,0,0,14.6,0A7,7,0,0,0,55,70H63A12.25,12.25,0,1,0,79,57.26V41.44H63.21Zm2.5,3h9.94V56.62h-.54a12.1,12.1,0,0,0-4.21.79l-8.52-.69,3.33-12.24ZM75.11,64a4.9,4.9,0,1,1-5,4.9,4.78,4.78,0,0,1,5-4.9Zm-26.3,6.37a3.66,3.66,0,0,1,3.77,3.52,3.6,3.6,0,0,1-3.77,3.53A3.67,3.67,0,0,1,45,73.86,3.6,3.6,0,0,1,48.81,70.34Z"/><line class="cls-2" x1="238.64" y1="2762.82" x2="238.64" y2="2816.22"/><path class="cls-1" d="M62.24,0h0C27.86,0,0,26.47,0,59.13,0,71.69,6.73,82.35,11.81,93.82c0,.06.13.27.31.62,7.25-4,16.24-6.67,25.94-8.17A37.37,37.37,0,0,1,23.28,56.74c0-21,18-38.1,40.12-38.1s40.12,17.07,40.12,38.1A37.54,37.54,0,0,1,86.27,88c9.32,2.16,17.76,5.4,24.32,9.66,1.25-2.38,2-3.83,2.07-4,5.08-11.47,11.81-22.13,11.81-34.68C124.47,26.47,96.61,0,62.24,0Z"/><path class="cls-1" d="M42.57,152.22c15.88-15.91,37.87-28.9,56.35-32.32,1.47-2.8,2.9-5.52,4.25-8.07-24.43,2.64-49.25,9-69.35,23.83Z"/><path class="cls-1" d="M49,164.41l1,1.91a14,14,0,0,0,24.43,0s10-18.92,19.74-37.45C77,137.93,60.9,149.11,49,164.41Z"/><path class="cls-1" d="M18,105.65c2.56,4.87,5.71,10.84,9,17.12,22.75-14.13,56.61-21.46,78.94-16.26l2.58-4.91C78.38,94.34,46.81,89.74,18,105.65Z"/></g></g></g></svg>