<svg xmlns="http://www.w3.org/2000/svg" viewBox="100 0 180 180"><defs><style>.cls-1{fill:#af6fd6;}.cls-2{fill:none;stroke:#5e6060;stroke-opacity:0.39;stroke-width:0.76px;}</style></defs><g id="Layer_2" data-name="Layer 2"><g id="Layer_41" data-name="Layer 41"><g id="Layer_40" data-name="Layer 40"><path class="cls-1" d="M163.59,51.24a.54.54,0,0,0-.53-.54h-3.2a.54.54,0,0,0-.53.54V75.19a.53.53,0,0,0,.53.53h3.2a.53.53,0,0,0,.53-.53V70.5H201v4.69a.54.54,0,0,0,.54.53h3.19a.54.54,0,0,0,.54-.53v-9H163.54v-15Z"/><path class="cls-1" d="M175.3,59.46a4.94,4.94,0,1,1-4.94-4.93,4.94,4.94,0,0,1,4.94,4.93"/><path class="cls-1" d="M200.75,58.49l-20.27-4.35A2.85,2.85,0,0,0,177,56.9v7.5h28.21v-.29a5.63,5.63,0,0,0-4.5-5.62Z"/><path class="cls-1" d="M203.74,46.85a2.34,2.34,0,0,1-.86-.16l-20.59-7.9-20.58,7.9a2.41,2.41,0,1,1-1.73-4.5L181.43,34a2.45,2.45,0,0,1,1.73,0l21.44,8.24a2.41,2.41,0,0,1-.86,4.66Z"/><line class="cls-2" x1="0.38" y1="2382.31" x2="0.38" y2="2435.71"/><path class="cls-1" d="M181.13,0h0c-34.38,0-62.24,26.47-62.24,59.13,0,12.56,6.73,23.22,11.81,34.69l.31.62c7.25-4,16.24-6.67,26-8.17a37.34,37.34,0,0,1-14.78-29.53c0-21,18-38.1,40.11-38.1s40.12,17.07,40.12,38.1A37.54,37.54,0,0,1,205.16,88c9.32,2.16,17.76,5.4,24.32,9.66,1.25-2.38,2-3.83,2.07-4,5.08-11.47,11.81-22.13,11.81-34.68C243.36,26.47,215.5,0,181.13,0Z"/><path class="cls-1" d="M161.46,152.22c15.88-15.91,37.87-28.9,56.35-32.32,1.47-2.8,2.9-5.52,4.25-8.07-24.43,2.64-49.25,9-69.34,23.83Z"/><path class="cls-1" d="M167.9,164.41l1,1.91a14,14,0,0,0,24.43,0s10-18.92,19.74-37.45C195.9,137.93,179.79,149.11,167.9,164.41Z"/><path class="cls-1" d="M136.89,105.65l9,17.12c22.75-14.13,56.61-21.46,78.94-16.26l2.58-4.91C197.27,94.34,165.7,89.74,136.89,105.65Z"/></g></g></g></svg>