<svg id="Component_3_1" data-name="Component 3 – 1" xmlns="http://www.w3.org/2000/svg" xmlns:xlink="http://www.w3.org/1999/xlink" width="49.295" height="71.647" viewBox="0 0 49.295 71.647">
  <defs>
    <clipPath id="clip-path">
      <rect id="Rectangle_1850" data-name="Rectangle 1850" width="49.295" height="71.647" fill="none"/>
    </clipPath>
  </defs>
  <g id="Group_1952" data-name="Group 1952" transform="translate(-245 -170)">
    <g id="Group_1941" data-name="Group 1941" transform="translate(245 170)">
      <g id="Group_1940" data-name="Group 1940" transform="translate(0 0)" clip-path="url(#clip-path)">
        <path id="Path_2256" data-name="Path 2256" d="M48.719,19.625A24.605,24.605,0,0,0,.058,23.219,24.8,24.8,0,0,0,3.2,37.113q8.584,15.672,17.116,31.371a5.735,5.735,0,0,0,3.493,3.162h1.679A5.152,5.152,0,0,0,28.635,69.1q8.726-16.034,17.493-32.048a24.721,24.721,0,0,0,2.589-17.423" transform="translate(0 0)" fill="#fff"/>
      </g>
    </g>
    <g id="b" transform="translate(244.998 170.004)">
      <g id="c">
        <g id="Group_1933" data-name="Group 1933">
          <path id="Path_2216" data-name="Path 2216" d="M18.86,65.79c4.4-5.21,14.03-8.67,16.51-9.13.57-1.04,1.13-2.08,1.7-3.12-3.81.05-13.87,1.5-21.21,6.73q1.5,2.76,3.01,5.52Z" fill="#b16fd8"/>
          <path id="Path_2217" data-name="Path 2217" d="M10.13,49.76c1.11,2.04,2.22,4.07,3.33,6.11,8.79-5.29,19.79-5.29,24.96-4.81.34-.62.68-1.24,1.02-1.87-5.18-2.85-20.06-3.39-29.31.57Z" fill="#b16fd8"/>
          <path id="Path_2218" data-name="Path 2218" d="M48.68,19.61h0A24.584,24.584,0,0,0,.06,23.2,24.8,24.8,0,0,0,3.2,37.08c1.64,2.99,4.6,8.42,4.6,8.42,12.22-4.32,26.88-1.94,32.7,1.63,1.92-3.51,3.68-6.61,5.6-10.12A24.736,24.736,0,0,0,48.69,19.6ZM18.96,18.7a3.15,3.15,0,1,1-3.15,3.15A3.15,3.15,0,0,1,18.96,18.7ZM37.22,32.55H34.7V28.77H14.55v3.78H12.03V14.92h2.52V26.25h8.82V17.43h8.82a5.051,5.051,0,0,1,5.04,5.04V32.54Z" fill="#b16fd8"/>
          <path id="Path_2219" data-name="Path 2219" d="M20.99,69.6a4.617,4.617,0,0,0,2.8,1.99,6.746,6.746,0,0,0,1.68,0,5.1,5.1,0,0,0,3.14-2.55,100.675,100.675,0,0,0,5.06-9.06c-2.08.37-9.42,4.6-12.69,9.62Z" fill="#b16fd8"/>
        </g>
      </g>
    </g>
  </g>
</svg>
