<svg xmlns="http://www.w3.org/2000/svg" viewBox="100 0 180 180"><defs><style>.cls-1{fill:#82ca37;}.cls-2{fill:none;stroke:#5e6060;stroke-opacity:0.39;stroke-width:0.76px;}</style></defs><g id="Layer_2" data-name="Layer 2"><g id="Layer_41" data-name="Layer 41"><g id="Layer_40" data-name="Layer 40"><path class="cls-1" d="M198.33,48.27A27.27,27.27,0,0,0,190.72,37c-.31-.28-1.68-1.23-2.77-2-.94-.64-1.74-1.19-2.41-1.68a16.74,16.74,0,0,1-3,6.28,43,43,0,0,1-7.61,7.28c-3.94,3.2-7.66,6.22-9.12,10.48a24.6,24.6,0,0,0,1.25,18.38,12.41,12.41,0,0,0,6,5.79c.41-1.77.85-3.52,1.31-5.27-.22-.52-.41-1.06-.62-1.55-.42-1-.81-2-1.16-2.94h0a31,31,0,0,1-1.44-5.17,32.55,32.55,0,0,1,4.2,6.14c.53-1.84,1.09-3.64,1.68-5.46-.19-.47-.37-1-.56-1.39-.41-1-.81-2-1.16-3a28.84,28.84,0,0,1-1.44-5.16A33.38,33.38,0,0,1,178.12,64c.78-2.22,1.59-4.42,2.46-6.62-.24-.54-.43-1.11-.66-1.61-.41-1-.81-1.94-1.16-3a29.53,29.53,0,0,1-1.42-5.15,33.75,33.75,0,0,1,4.47,6.64c1.22-2.93,2.52-5.84,3.9-8.7a.51.51,0,0,1,.61-.35l2,.94c.19.08.24.4.12.67q-2,4.32-3.66,8.72c.78-.17,1.56-.33,2.35-.48h0a31.89,31.89,0,0,1,4.14-.54,13,13,0,0,1,1.4,0,29.52,29.52,0,0,1-5.27,2.57c-1.11.43-2.23.83-3.36,1.19l-.31.11c-.88,2.44-1.74,4.88-2.52,7.36.82-.19,1.64-.36,2.47-.52a30.15,30.15,0,0,1,4.12-.53,11.24,11.24,0,0,1,1.42-.06,31,31,0,0,1-5.27,2.57c-1.11.43-2.23.83-3.36,1.19l-.22.07c-.59,2-1.17,4-1.69,6,.75-.17,1.51-.33,2.28-.47h0a32,32,0,0,1,4.13-.56c.47,0,1-.05,1.42-.05A31,31,0,0,1,181.22,76c-1.06.42-2.13.8-3.22,1.15-.42,1.73-.82,3.48-1.18,5.25h.05a17.93,17.93,0,0,0,8.1-1.23,19.25,19.25,0,0,0,6.43-4.42,30.53,30.53,0,0,0,7.52-14.91,25.78,25.78,0,0,0-.59-13.61Z"/><line class="cls-2" x1="0.38" y1="2762.82" x2="0.38" y2="2816.22"/><path class="cls-1" d="M181.13,0h0c-34.38,0-62.24,26.47-62.24,59.13,0,12.56,6.73,23.22,11.81,34.69l.31.62c7.25-4,16.24-6.67,26-8.17a37.34,37.34,0,0,1-14.78-29.53c0-21,18-38.1,40.11-38.1s40.12,17.07,40.12,38.1A37.54,37.54,0,0,1,205.16,88c9.32,2.16,17.76,5.4,24.32,9.66,1.25-2.38,2-3.83,2.07-4,5.08-11.47,11.81-22.13,11.81-34.68C243.36,26.47,215.5,0,181.13,0Z"/><path class="cls-1" d="M161.46,152.22c15.88-15.91,37.87-28.9,56.35-32.32,1.47-2.8,2.9-5.52,4.25-8.07-24.43,2.64-49.25,9-69.34,23.83Z"/><path class="cls-1" d="M167.9,164.41l1,1.91a14,14,0,0,0,24.43,0s10-18.92,19.74-37.45C195.9,137.93,179.79,149.11,167.9,164.41Z"/><path class="cls-1" d="M136.89,105.65l9,17.12c22.75-14.13,56.61-21.46,78.94-16.26l2.58-4.91C197.27,94.34,165.7,89.74,136.89,105.65Z"/></g></g></g></svg>