<svg id="Component_7_1" data-name="Component 7 – 1" xmlns="http://www.w3.org/2000/svg" xmlns:xlink="http://www.w3.org/1999/xlink" width="49.295" height="71.647" viewBox="0 0 49.295 71.647">
  <defs>
    <clipPath id="clip-path">
      <rect id="Rectangle_1850" data-name="Rectangle 1850" width="49.295" height="71.647" fill="none"/>
    </clipPath>
  </defs>
  <g id="Group_1947" data-name="Group 1947" transform="translate(0 0)">
    <g id="Group_1940" data-name="Group 1940" transform="translate(0 0)" clip-path="url(#clip-path)">
      <path id="Path_2256" data-name="Path 2256" d="M48.719,19.625A24.605,24.605,0,0,0,.058,23.219,24.8,24.8,0,0,0,3.2,37.113q8.584,15.672,17.116,31.371a5.735,5.735,0,0,0,3.493,3.162h1.679A5.152,5.152,0,0,0,28.635,69.1q8.726-16.034,17.493-32.048a24.721,24.721,0,0,0,2.589-17.423" transform="translate(0 0)" fill="#fff"/>
    </g>
  </g>
  <g id="b" transform="translate(0.029 0.004)">
    <g id="c">
      <g id="Group_1929" data-name="Group 1929">
        <path id="Path_2193" data-name="Path 2193" d="M18.86,65.79c4.4-5.21,14.03-8.67,16.51-9.13.57-1.04,1.13-2.08,1.7-3.12-3.81.05-13.87,1.5-21.21,6.73q1.5,2.76,3.01,5.52Z" fill="#9c3"/>
        <path id="Path_2194" data-name="Path 2194" d="M10.13,49.76c1.11,2.04,2.22,4.07,3.33,6.11,8.79-5.29,19.79-5.29,24.96-4.81.34-.62.68-1.24,1.02-1.87-5.18-2.85-20.06-3.39-29.31.57Z" fill="#9c3"/>
        <path id="Path_2195" data-name="Path 2195" d="M48.68,19.61h0A24.584,24.584,0,0,0,.06,23.2,24.8,24.8,0,0,0,3.2,37.08c1.64,2.99,4.6,8.42,4.6,8.42,12.22-4.32,26.88-1.94,32.7,1.63,1.92-3.51,3.68-6.61,5.6-10.12A24.736,24.736,0,0,0,48.69,19.6ZM19.75,12.97a3.168,3.168,0,0,1,1.78.55l-.02-.24a3.13,3.13,0,1,1,6.26,0l-.02.24a3.5,3.5,0,0,1,.42-.24,3.12,3.12,0,0,1,2.69,5.63,3.123,3.123,0,1,1-3.12,5.39l.02.24a3.13,3.13,0,0,1-6.26,0l.02-.24a3.081,3.081,0,0,1-1.76.55,3.141,3.141,0,0,1-3.14-3.12h0a3.11,3.11,0,0,1,1.79-2.81,3.119,3.119,0,0,1,1.34-5.94Zm4.88,23.45A11.265,11.265,0,0,1,13.37,25.16,11.265,11.265,0,0,1,24.63,36.42,11.263,11.263,0,0,1,35.88,25.16,11.263,11.263,0,0,1,24.63,36.42Z" fill="#9c3"/>
        <path id="Path_2196" data-name="Path 2196" d="M24.63,22.03a3.13,3.13,0,1,0,0-6.26h0a3.13,3.13,0,1,0,0,6.26Z" fill="#9c3"/>
        <path id="Path_2197" data-name="Path 2197" d="M20.99,69.6a4.617,4.617,0,0,0,2.8,1.99,6.746,6.746,0,0,0,1.68,0,5.1,5.1,0,0,0,3.14-2.55,100.675,100.675,0,0,0,5.06-9.06c-2.08.37-9.42,4.6-12.69,9.62Z" fill="#9c3"/>
      </g>
    </g>
  </g>
</svg>
